<svg xmlns="http://www.w3.org/2000/svg" version="1.1" viewBox="0 0 138.08501 62.524453" height="62.524452" width="138.08501">
  <path style="fill:#a5d4f2" id="path966" d="m 138.084,0.003 -6,14.655 6,15.523 z" class="a"/>
  <path style="fill:#89c9ef" id="path968" d="m 117.624,0.003 14.458,14.653 6,-14.655 z" class="b"/>
  <path style="fill:#43631e" id="path970" d="M 117.625,36.859 V 49.673 L 128.398,32.034 Z" class="c"/>
  <path style="fill:#c4cc4d" id="path972" d="m 128.398,32.029 9.687,17.639 V 30.18 l -6,-15.523 z" class="d"/>
  <path style="fill:#b2c117" id="path974" d="m 117.624,0.003 v 36.853 l 10.772,-4.831 3.686,-17.369 z" class="e"/>
  <path style="fill:#647f42" id="path976" d="m 117.624,49.673 h 20.458 l -9.687,-17.639 z" class="f"/>
  <path style="fill:#a5d4f2" id="path978" d="M 0.015,49.668 H 17.373 V 40.004 L 6.893,22.804 Z" class="a"/>
  <path style="fill:#43631e" id="path980" d="m 0.015,0.003 6.878,22.8 14.129,-22.8 z" class="c"/>
  <path style="fill:#647f42" id="path982" d="M 0.015,0.003 V 49.668 L 6.893,22.802 Z" class="f"/>
  <path style="fill:#89c9ef" id="path984" d="M 21.019,0.003 6.89,22.803 17.37,40.003 30.684,9.668 Z" class="b"/>
  <path style="fill:#c4cc4d" id="path986" d="m 30.688,0.003 v 9.666 l 10.6,24.417 6.763,-34.083 z" class="d"/>
  <path style="fill:#b2c117" id="path988" d="M 17.374,40.004 27.038,49.668 41.284,34.086 30.684,9.669 Z" class="e"/>
  <path style="fill:#cd444d" id="path990" d="m 48.046,0.003 -6.763,34.083 6.763,15.582 z" class="g"/>
  <path style="fill:#bf0031" id="path992" d="M 27.038,49.668 H 48.046 L 41.283,34.09 Z" class="h"/>
  <path style="fill:#89c9ef" id="path994" d="M 61.711,9.49 56.726,24.837 H 70.989 L 74.766,0.004 Z" class="b"/>
  <path style="fill:#ffc900" id="path996" d="M 74.766,0.003 94.204,34.086 103.957,9.486 90.904,0 Z" class="i"/>
  <path style="fill:#b2c117" id="path998" d="m 74.767,0.003 -3.777,24.833 23.215,9.25 z" class="e"/>
  <path style="fill:#ffd344" id="path1000" d="m 94.204,34.086 9.753,6.1 4.987,-15.347 -4.987,-15.347 z" class="j"/>
  <path style="fill:#a5d4f2" id="path1002" d="m 56.727,24.836 4.986,15.347 13.055,9.484 -3.777,-24.832 z" class="a"/>
  <path style="fill:#f36a10" id="path1004" d="m 90.904,49.668 13.053,-9.485 -9.752,-6.1 z" class="k"/>
  <path style="fill:#c4cc4d" id="path1006" d="M 74.767,49.669 94.205,34.082 70.99,24.832 Z" class="d"/>
  <path style="fill:#f8893e" id="path1008" d="m 74.766,49.668 h 16.137 l 3.3,-15.582 z" class="l"/>
  <path style="fill:#2f2f30" id="path1010" d="m 5.404,62.411 h 3.18 V 61.737 H 6.203 V 59.621 H 8.238 V 58.956 H 6.203 V 57.169 H 8.522 V 56.495 H 5.404 Z" class="m"/>
  <path style="fill:#2f2f30" id="path1012" d="m 41.988,62.411 -2.5,-3.136 2.346,-2.781 H 40.91 l -2.328,2.816 v -2.816 h -0.8 v 5.917 h 0.8 v -3.056 l 2.417,3.056 z" class="m"/>
  <path style="fill:#2f2f30" id="path1014" d="m 64.431,57.169 h 1.671 v -0.674 h -4.148 v 0.674 h 1.67 v 5.243 h 0.807 z" class="m"/>
  <rect style="fill:#2f2f30" y="56.494999" x="67.277" id="rect1016" height="5.9169998" width="0.80800003" class="m"/>
  <rect style="fill:#2f2f30" y="56.494999" x="125.838" id="rect1018" height="5.9169998" width="0.80800003" class="m"/>
  <path style="fill:#2f2f30" id="path1020" d="m 103.174,57.169 h 1.671 v -0.674 h -4.148 v 0.674 h 1.67 v 5.243 h 0.807 z" class="m"/>
  <path style="fill:#2f2f30" id="path1022" d="M 2.478,57.169 H 4.149 V 56.495 H 0 v 0.674 h 1.671 v 5.243 h 0.808 z m 7.962,2.249 a 2.127,2.127 0 0 1 2.07,-2.364 2.232,2.232 0 0 1 1.306,0.382 l 0.391,-0.6 a 2.862,2.862 0 0 0 -1.679,-0.452 3.068,3.068 0 0 0 -0.018,6.13 2.762,2.762 0 0 0 1.8,-0.6 l -0.355,-0.569 a 2.13,2.13 0 0 1 -1.43,0.5 2.158,2.158 0 0 1 -2.088,-2.426 m 9.2,2.994 h 0.808 v -5.917 h -0.808 v 2.47 h -3.209 v -2.47 H 15.62 v 5.917 h 0.808 v -2.776 h 3.209 z" class="m"/>
  <path style="fill:#2f2f30" id="path1024" d="m 25.188,58.254 c 0,0.764 -0.409,1.164 -1.4,1.164 h -0.667 v -2.267 h 0.694 c 1,0 1.369,0.445 1.369,1.1 M 26,58.233 c 0,-1.164 -0.905,-1.741 -2.115,-1.741 h -1.572 v 5.917 h 0.808 v -2.337 h 0.658 c 1.4,0 2.221,-0.656 2.221,-1.839" class="m"/>
  <path style="fill:#2f2f30" id="path1026" d="m 29.861,60.351 h -2.138 l 0.711,-1.911 c 0.169,-0.453 0.267,-0.755 0.347,-1.022 h 0.018 c 0.089,0.249 0.169,0.524 0.355,1.022 z m 0.764,2.06 h 0.871 l -2.284,-5.917 h -0.773 l -2.266,5.917 h 0.8 l 0.507,-1.395 h 2.63 z" class="m"/>
  <path style="fill:#2f2f30" id="path1028" d="m 35.311,58.254 c 0,0.764 -0.409,1.164 -1.4,1.164 h -0.667 v -2.267 h 0.694 c 1,0 1.369,0.445 1.369,1.1 m 0.816,-0.018 c 0,-1.165 -0.905,-1.741 -2.114,-1.741 h -1.572 v 5.917 h 0.808 v -2.338 h 0.625 a 0.379,0.379 0 0 1 0.237,0.071 3.767,3.767 0 0 1 0.745,0.9 l 0.951,1.362 h 0.921 l -1.286,-1.82 a 5.072,5.072 0 0 0 -0.521,-0.66 1.656,1.656 0 0 0 1.213,-1.7" class="m"/>
  <path style="fill:#2f2f30" id="path1030" d="m 45.907,61.346 -0.391,0.569 a 2.5,2.5 0 0 0 1.714,0.6 c 1.183,0 1.972,-0.666 1.972,-1.625 0,-1.137 -0.869,-1.538 -1.652,-1.911 -0.6,-0.276 -1.076,-0.524 -1.076,-1.093 a 0.873,0.873 0 0 1 0.987,-0.835 1.953,1.953 0 0 1 1.209,0.4 l 0.373,-0.586 a 2.478,2.478 0 0 0 -1.59,-0.479 1.6,1.6 0 0 0 -1.759,1.537 c 0,0.942 0.63,1.342 1.359,1.7 0.684,0.338 1.351,0.613 1.351,1.289 a 1.04,1.04 0 0 1 -1.156,0.942 1.907,1.907 0 0 1 -1.341,-0.507" class="m"/>
  <path style="fill:#2f2f30" id="path1032" d="m 51.983,55.02 a 0.506,0.506 0 0 0 -0.506,0.506 0.5,0.5 0 0 0 0.506,0.506 0.508,0.508 0 0 0 0.515,-0.506 0.513,0.513 0 0 0 -0.515,-0.506 m 2.213,0.506 a 0.511,0.511 0 1 0 -0.515,0.506 0.5,0.5 0 0 0 0.515,-0.506 m 0.2,0.969 v 3.714 a 1.426,1.426 0 0 1 -1.511,1.626 c -1.075,0 -1.556,-0.56 -1.556,-1.742 v -3.6 h -0.8 v 3.685 a 2.306,2.306 0 1 0 4.611,-0.053 v -3.634 z" class="m"/>
  <path style="fill:#2f2f30" id="path1034" d="m 60.749,59.4 c 0,1.546 -0.853,2.355 -2.489,2.355 h -0.685 v -4.6 h 0.64 c 1.725,0 2.533,0.693 2.533,2.249 m 0.843,-0.018 c 0,-1.707 -1.03,-2.887 -3.358,-2.887 h -1.466 v 5.917 h 1.421 c 2.364,0 3.4,-1.323 3.4,-3.029" class="m"/>
  <path style="fill:#2f2f30" id="path1036" d="m 72.828,58.254 c 0,0.764 -0.409,1.165 -1.4,1.165 h -0.667 v -2.267 h 0.694 c 1,0 1.369,0.445 1.369,1.1 m 0.816,-0.018 c 0,-1.165 -0.905,-1.741 -2.114,-1.741 h -1.572 v 5.917 h 0.807 v -2.338 h 0.62 a 0.379,0.379 0 0 1 0.237,0.071 3.765,3.765 0 0 1 0.745,0.9 l 0.951,1.362 h 0.921 l -1.286,-1.82 a 5.075,5.075 0 0 0 -0.521,-0.66 1.656,1.656 0 0 0 1.212,-1.7" class="m"/>
  <path style="fill:#2f2f30" id="path1038" d="m 75.506,59.444 a 2.109,2.109 0 1 1 2.089,2.408 2.154,2.154 0 0 1 -2.089,-2.408 m -0.843,0.018 a 2.939,2.939 0 1 0 2.932,-3.074 2.9,2.9 0 0 0 -2.932,3.074 m 8.138,-2.967 h -0.8 v 5.917 h 3.109 v -0.665 h -2.311 z m 5.12,5.917 2.136,-5.917 h -0.72 l -2.136,5.917 z m 6.708,-2.06 h -2.133 l 0.711,-1.91 c 0.169,-0.453 0.266,-0.755 0.347,-1.022 h 0.018 c 0.089,0.249 0.169,0.524 0.355,1.022 z m 0.764,2.06 h 0.871 L 93.98,56.495 h -0.773 l -2.266,5.917 h 0.8 l 0.507,-1.395 h 2.63 z m 2.136,0 h 3.109 v -0.665 h -2.31 v -5.251 h -0.8 z" class="m"/>
  <path style="fill:#2f2f30" id="path1040" d="m 110.2,59.462 a 2.109,2.109 0 1 1 -2.071,-2.408 2.14,2.14 0 0 1 2.071,2.408 m 0.852,-0.018 a 2.939,2.939 0 1 0 -2.923,3.074 2.9,2.9 0 0 0 2.923,-3.074 m 5.82,0.907 h -2.132 l 0.711,-1.91 c 0.169,-0.453 0.267,-0.755 0.347,-1.022 h 0.018 c 0.089,0.249 0.169,0.524 0.355,1.022 z m 0.765,2.06 h 0.871 l -2.284,-5.917 h -0.773 l -2.266,5.917 h 0.8 l 0.506,-1.395 h 2.63 z m 6.016,-3.012 c 0,1.546 -0.853,2.355 -2.489,2.355 h -0.685 v -4.6 h 0.64 c 1.725,0 2.533,0.693 2.533,2.249 m 0.843,-0.018 c 0,-1.707 -1.029,-2.887 -3.358,-2.887 h -1.465 v 5.917 h 1.421 c 2.364,0 3.4,-1.323 3.4,-3.029" class="m"/>
  <path style="fill:#2f2f30" id="path1042" d="m 130.965,62.518 a 3.537,3.537 0 0 0 2.194,-0.6 v -2.63 h -2.034 v 0.657 h 1.235 v 1.565 a 2.406,2.406 0 0 1 -1.378,0.338 2.169,2.169 0 0 1 -2.151,-2.426 2.129,2.129 0 0 1 2.16,-2.364 2.226,2.226 0 0 1 1.5,0.48 l 0.4,-0.6 a 3.087,3.087 0 1 0 -1.928,5.58 m 4.664,-0.781 v -2.116 h 2.035 v -0.665 h -2.035 v -1.787 h 2.319 v -0.674 h -3.118 v 5.917 h 3.18 v -0.674 z" class="m"/>
  <rect style="fill:none" y="-20.427" x="-20.538" id="rect1044" height="103.503" width="179" class="n"/>
</svg>
